<svg xmlns="http://www.w3.org/2000/svg" width="48" height="48" data-name="Layer 1" id="movie-move"><path d="M40 36c0 2-.68 2.67-2.67 2.67H10.67V40a1.33 1.33 0 0 0 1.09 1.31H41.33a1.34 1.34 0 0 0 1.32-1.09V16a1.33 1.33 0 0 0-1.1-1.31H40Zm-26.67-2.67h-8V36h5.34Zm24 0h-2.66L32 36h5.33v-2.67Zm-5.33 0h-8L21.33 36h8Zm-10.67 0H16L13.33 36h5.34ZM5.33 12v18.67h32V12Zm16.22 2.71L27 20.17l.06.06a1.2 1.2 0 0 1 0 1.68l-5 5a1.27 1.27 0 0 1-1.8-1.8l3-3h-8.15a1.27 1.27 0 1 1 0-2.54H23l-3.17-3.17a1.19 1.19 0 0 1 1.68-1.68ZM32 6.67h-8l-2.67 2.66h8L32 6.67Zm-10.67 0H16l-2.67 2.66h5.34Zm-8 0h-8v2.66h5.34Zm24 0h-2.66L32 9.33h5.33V6.67Zm-32 32c-2 0-2.66-.7-2.66-2.67V6.67C2.67 4.7 3.35 4 5.33 4h32c2 0 2.67.7 2.67 2.67V12h1.33a4 4 0 0 1 4 3.62V40a4 4 0 0 1-3.61 4H12a4 4 0 0 1-4-3.62v-1.71Z"></path></svg>