<svg xmlns="http://www.w3.org/2000/svg" enable-background="new 0 0 512 512" viewBox="0 0 512 512" id="watching-movie"><path fill="#0d0d0d" d="M218 198c-.9 0-1.8-.3-2.6-.7-1.5-.9-2.4-2.5-2.4-4.3v-76c0-1.7.9-3.3 2.4-4.3s3.3-1 4.9-.2l76 38c1.7.8 2.8 2.6 2.8 4.5s-1.1 3.6-2.8 4.5l-76 38C219.5 197.8 218.8 198 218 198zM223 125.1v59.8l59.8-29.9L223 125.1zM223 512H95c-2.5 0-4.7-1.9-5-4.4L69.6 328c-.8-7.1 1.5-14.3 6.2-19.6 4.8-5.3 11.6-8.4 18.8-8.4 8.3 0 15.7 4 20.3 10.2.5-.7 1.1-1.4 1.7-2 4.8-5.2 11.5-8.2 18.5-8.2h3.8c8.2 0 15.6 4 20.2 10.1 4.6-6.1 11.9-10.1 20.2-10.1h3.8c7 0 13.8 3 18.5 8.2.6.6 1.1 1.3 1.7 2 4.6-6.2 11.9-10.2 20.3-10.2 7.2 0 14 3.1 18.8 8.4 4.8 5.3 7 12.5 6.2 19.6L228 507.6C227.7 510.1 225.5 512 223 512zM99.5 502h119.1l19.9-175.1c.5-4.3-.9-8.6-3.8-11.8s-7-5.1-11.3-5.1c-7.9 0-14.4 6-15.1 13.8l-.3 3.4c0 0 0 0 0 .1l-.5 6.1c-.2 2.8-2.7 4.8-5.4 4.5-2.8-.2-4.8-2.7-4.5-5.4l.5-6.1c.4-4.3-1-8.4-3.9-11.5-2.9-3.2-6.9-4.9-11.2-4.9h-3.8c-8.4 0-15.2 6.8-15.2 15.2v7.8c0 2.8-2.2 5-5 5s-5-2.2-5-5v-7.8c0-8.4-6.8-15.2-15.2-15.2h-3.8c-4.3 0-8.3 1.7-11.2 4.9-2.9 3.2-4.3 7.2-3.9 11.5l.5 6.1c.2 2.8-1.8 5.2-4.5 5.4-2.7.2-5.2-1.8-5.4-4.5l-.5-6.1c0 0 0 0 0-.1l-.3-3.4C109 316 102.5 310 94.6 310c-4.3 0-8.4 1.8-11.3 5.1s-4.2 7.5-3.8 11.8L99.5 502z"></path><rect width="68.7" height="10" x="83.4" y="362.3" fill="#0d0d0d" transform="scale(.99998) rotate(86.219 117.767 367.27)"></rect><rect width="95.4" height="10" x="76.2" y="454.4" fill="#0d0d0d" transform="matrix(.06595 .9978 -.9978 .06595 574.09 305.522)"></rect><rect width="10" height="81" x="154" y="426" fill="#0d0d0d"></rect><rect width="10" height="53" x="154" y="333" fill="#0d0d0d"></rect><rect width="10" height="94.5" x="188.9" y="412.5" fill="#0d0d0d" transform="scale(.99995) rotate(3.488 193.883 459.81)"></rect><rect width="10" height="68.7" x="195.2" y="332.9" fill="#0d0d0d" transform="matrix(.9978 .06592 -.06592 .9978 24.644 -12.4)"></rect><path fill="#0d0d0d" d="M159 431c-25.7 0-45-10.7-45-25s19.3-25 45-25 45 10.7 45 25S184.7 431 159 431zM159 391c-20 0-35 7.9-35 15s15 15 35 15 35-7.9 35-15S179 391 159 391zM418 512h-90c-2.5 0-4.6-1.9-5-4.4l-19-150c-.2-1.4.3-2.9 1.2-3.9.9-1.1 2.3-1.7 3.8-1.7h128c1.4 0 2.8.6 3.8 1.7.9 1.1 1.4 2.5 1.2 3.9l-19 150C422.7 510.1 420.5 512 418 512zM332.4 502h81.2l17.7-140H314.7L332.4 502z"></path><rect width="160" height="10" x="293" y="352" fill="#0d0d0d"></rect><path fill="#0d0d0d" d="M437,362H309c-2.8,0-5-2.2-5-5c0-13.8,11.2-25,25-25h88c13.8,0,25,11.2,25,25
				C442,359.8,439.8,362,437,362z M314.9,352h116.3c-2.1-5.8-7.6-10-14.1-10h-88C322.5,342,316.9,346.2,314.9,352z"></path><path fill="#0d0d0d" d="M378 337h-10v-56c0-1.5.7-3 1.9-3.9l31.5-25 6.2 7.8L378 283.4V337zM424.6 460H321.4c-2.5 0-4.6-1.9-5-4.4l-5.8-46c-.2-1.4.3-2.9 1.2-3.9.9-1.1 2.3-1.7 3.8-1.7h114.8c1.4 0 2.8.6 3.8 1.7.9 1.1 1.4 2.5 1.2 3.9l-5.8 46C429.3 458.1 427.1 460 424.6 460zM325.8 450h94.4l4.6-36H321.3L325.8 450z"></path><rect width="142.2" height="10" x="230.8" y="260" fill="#0d0d0d"></rect><path fill="#0d0d0d" d="M73,317c-2-3.6-3-7.8-3-12c0-6.1,2.2-11.9,6.2-16.5c-1.9-5.7-1.8-11.9,0.6-17.6
				c0.1-0.3,0.3-0.6,0.4-0.9H5c-2.8,0-5-2.2-5-5V45c0-2.8,2.2-5,5-5h502c2.8,0,5,2.2,5,5v220c0,2.8-2.2,5-5,5h-94v-10h89V50H10v210
				l77.2,0c2.1,0,4,1.3,4.7,3.3c0.7,2,0.1,4.2-1.6,5.6c-1.9,1.6-3.4,3.6-4.4,5.9c-1.7,4.1-1.5,8.7,0.5,12.6c1.1,2.1,0.6,4.6-1.2,6.1
				c-3.4,2.9-5.3,7-5.3,11.5c0,2.5,0.6,5,1.8,7.2L73,317z"></path><rect width="110" height="10" x="243" y="300" fill="#0d0d0d"></rect><path fill="#0d0d0d" d="M480.5,310H393v-10h87.5c11.9,0,21.5-9.6,21.5-21.5v-247c0-11.9-9.6-21.5-21.5-21.5h-449
				C19.6,10,10,19.6,10,31.5v247c0,11.9,9.6,21.5,21.5,21.5H75v10H31.5C14.1,310,0,295.9,0,278.5v-247C0,14.1,14.1,0,31.5,0h449
				C497.9,0,512,14.1,512,31.5v247C512,295.9,497.9,310,480.5,310z"></path><path fill="#0d0d0d" d="M245,317l-8.8-4.8c1.2-2.2,1.8-4.7,1.8-7.2c0-4.4-1.9-8.6-5.3-11.5c-1.8-1.5-2.3-4-1.2-6.1
				c2-3.9,2.2-8.6,0.5-12.6c-1.7-4.1-5.1-7.2-9.3-8.6c-2.2-0.7-3.7-2.9-3.5-5.2c0.4-4.4-1.2-8.8-4.3-11.9c-3.1-3.1-7.5-4.7-11.9-4.3
				c-2.3,0.2-4.5-1.2-5.2-3.5c-1.3-4.2-4.5-7.6-8.6-9.3c-4.1-1.7-8.7-1.5-12.6,0.5c-2.1,1.1-4.6,0.6-6.1-1.2
				c-2.9-3.4-7-5.3-11.5-5.3s-8.6,1.9-11.5,5.3c-1.5,1.8-4,2.3-6.1,1.2c-3.9-2-8.6-2.2-12.6-0.5c-4.1,1.7-7.2,5.1-8.5,9.3
				c-0.7,2.2-2.9,3.7-5.2,3.5c-4.4-0.4-8.8,1.2-11.9,4.3l-7.1-7.1c4.3-4.3,10-6.9,16-7.3c2.7-5.4,7.2-9.7,12.8-12
				c5.6-2.3,11.9-2.5,17.6-0.6c4.5-4,10.4-6.2,16.5-6.2s11.9,2.2,16.5,6.2c5.7-1.9,11.9-1.8,17.6,0.6c5.6,2.3,10.2,6.6,12.8,12
				c6,0.4,11.7,2.9,16,7.3c4.3,4.3,6.9,10,7.3,16c5.4,2.7,9.7,7.2,12,12.8c2.3,5.6,2.5,11.9,0.6,17.6c4,4.5,6.2,10.4,6.2,16.5
				C248,309.2,246.9,313.3,245,317z"></path></svg>